<svg width="1062" height="597" viewBox="0 0 1062 597" fill="none" xmlns="http://www.w3.org/2000/svg"><rect width="1062" height="597" fill="#F6D1C9"/><path d="M277.483 140.493C277.483 133.166 283.423 127.227 290.75 127.227L393.926 127.227C397.044 127.227 400.063 128.325 402.452 130.329L450.475 170.614C452.864 172.618 455.883 173.717 459.001 173.717H692.581C699.908 173.717 705.848 179.656 705.848 186.983V423.706C705.848 431.033 699.908 436.972 692.581 436.972H290.75C283.423 436.972 277.483 431.033 277.483 423.706V140.493Z" fill="black"/><path d="M303.08 160.94C303.08 153.613 309.02 147.673 316.347 147.673L419.523 147.673C422.641 147.673 425.66 148.772 428.049 150.776L476.077 191.065C478.463 193.066 481.477 194.165 484.592 194.167L717.436 194.369C724.743 194.375 730.669 200.289 730.691 207.595L731.405 444.112C731.427 451.455 725.481 457.419 718.138 457.419H316.347C309.02 457.419 303.08 451.479 303.08 444.152V160.94Z" fill="#4CA8F3"/><rect x="592.239" y="288.56" width="83.4708" height="83.4708" transform="rotate(41.8296 592.239 288.56)" fill="black"/><rect x="634.866" y="303.513" width="83.4709" height="83.4709" transform="rotate(86.8296 634.866 303.513)" fill="black"/><path d="M632.116 327.019L705.253 353.317L762.685 357.9L688.478 369.07L621.703 361.474L606.394 409.047L626.715 443.221L591.616 413.665L576.949 387.234L588.603 364.909L621.703 361.474L555.308 366.754L512.827 365.033L465.924 350.066L519 346.514L549.217 332.832L528.701 305.949L447.026 254.631L546.437 295.813L573.976 307.427L596.603 262.738L594.543 223.388L611.656 264.545L608.744 305.555L632.116 327.019Z" fill="black"/><path d="M637.958 300.936L606.94 303.851L632.66 337.218L652.594 302.318L664.792 274.103L637.958 300.936Z" fill="black"/><path d="M629.638 373.183L637.391 358.028L606.205 383.611L626.347 396.326L668.722 397.839L629.638 373.183Z" fill="black"/><path d="M525.67 404.032L584.272 389.597L554.623 362.168L549.146 382.513L525.67 404.032Z" fill="black"/><path d="M591.044 347.362L757.152 347.362C778.239 347.362 795.334 364.457 795.334 385.545V441.574" stroke="white" stroke-width="74.2441"/><ellipse cx="590.942" cy="347.365" rx="11.8367" ry="37.1134" fill="white"/><rect x="638.272" y="285.731" width="84.512" height="40.7995" fill="white"/><path d="M651.909 258.831C651.909 252.97 656.661 248.218 662.523 248.218H698.534C704.395 248.218 709.147 252.97 709.147 258.831V273.963H651.909V258.831Z" fill="white"/><rect x="614.802" y="272.25" width="131.452" height="16.1103" rx="8.05517" fill="white"/><path d="M831.984 493.528C831.984 513.769 815.576 530.178 795.334 530.178C775.093 530.178 758.685 513.769 758.685 493.528C758.685 473.287 795.334 431.357 795.334 431.357C795.334 431.357 831.984 473.287 831.984 493.528Z" fill="white"/><rect x="750.82" y="441.574" width="89.0281" height="7.78152" fill="#F6D1C9"/></svg>